<mxfile host="app.diagrams.net" modified="2024-03-25T16:32:11.203Z" agent="Mozilla/5.0 (X11; Ubuntu; Linux x86_64; rv:123.0) Gecko/20100101 Firefox/123.0" version="24.1.0" etag="t0RxaKYGQ2BLTEAIEdaj" type="github">
  <diagram name="Seite-1" id="RFsYLo1NSuc1UYiCic-4">
    <mxGraphModel>
      <root>
        <mxCell id="0" />
        <mxCell id="1" parent="0" />
      </root>
    </mxGraphModel>
  </diagram>
</mxfile>
